<svg width="64" height="64" viewBox="0 0 64 64" fill="none" xmlns="http://www.w3.org/2000/svg">
  <!-- 背景圆形 -->
  <circle cx="32" cy="32" r="30" fill="#1976d2" stroke="#1565c0" stroke-width="2"/>
  
  <!-- 行情图表线条 -->
  <path d="M12 45 L18 40 L24 35 L30 30 L36 25 L42 20 L48 15 L52 12" 
        stroke="#ffffff" 
        stroke-width="3" 
        fill="none" 
        stroke-linecap="round" 
        stroke-linejoin="round"/>
  
  <!-- 数据点 -->
  <circle cx="18" cy="40" r="2" fill="#ffffff"/>
  <circle cx="24" cy="35" r="2" fill="#ffffff"/>
  <circle cx="30" cy="30" r="2" fill="#ffffff"/>
  <circle cx="36" cy="25" r="2" fill="#ffffff"/>
  <circle cx="42" cy="20" r="2" fill="#ffffff"/>
  <circle cx="48" cy="15" r="2" fill="#ffffff"/>
  
  <!-- 上升趋势箭头 -->
  <path d="M45 18 L48 15 L51 18" 
        stroke="#4caf50" 
        stroke-width="2" 
        fill="none" 
        stroke-linecap="round" 
        stroke-linejoin="round"/>
  
  <!-- CTP文字 -->
  <text x="32" y="55" 
        font-family="Arial, sans-serif" 
        font-size="12" 
        font-weight="bold" 
        text-anchor="middle" 
        fill="#ffffff">CTP</text>
  
  <!-- 装饰性网格线 -->
  <line x1="15" y1="20" x2="15" y2="45" stroke="#ffffff" stroke-width="1" opacity="0.3"/>
  <line x1="20" y1="20" x2="20" y2="45" stroke="#ffffff" stroke-width="1" opacity="0.3"/>
  <line x1="25" y1="20" x2="25" y2="45" stroke="#ffffff" stroke-width="1" opacity="0.3"/>
  <line x1="30" y1="20" x2="30" y2="45" stroke="#ffffff" stroke-width="1" opacity="0.3"/>
  <line x1="35" y1="20" x2="35" y2="45" stroke="#ffffff" stroke-width="1" opacity="0.3"/>
  <line x1="40" y1="20" x2="40" y2="45" stroke="#ffffff" stroke-width="1" opacity="0.3"/>
  <line x1="45" y1="20" x2="45" y2="45" stroke="#ffffff" stroke-width="1" opacity="0.3"/>
  <line x1="50" y1="20" x2="50" y2="45" stroke="#ffffff" stroke-width="1" opacity="0.3"/>
  
  <!-- 水平网格线 -->
  <line x1="12" y1="25" x2="52" y2="25" stroke="#ffffff" stroke-width="1" opacity="0.3"/>
  <line x1="12" y1="30" x2="52" y2="30" stroke="#ffffff" stroke-width="1" opacity="0.3"/>
  <line x1="12" y1="35" x2="52" y2="35" stroke="#ffffff" stroke-width="1" opacity="0.3"/>
  <line x1="12" y1="40" x2="52" y2="40" stroke="#ffffff" stroke-width="1" opacity="0.3"/>
</svg>
